# xmcd CD database file
#
# Track frame offsets:
#	150
#	11582
#	20857
#	32157
#	41817
#	52320
#	64802
#	73415
#	83452
#	91502
#	100340
#	113055
#	122442
#	133760
#	139682
#	150862
#	163180
#	173700
#
# Disc length: 2455 seconds
#
# Revision: 3
# Processed by: cddbd v1.5.2PL0 Copyright (c) Steve Scherf et al.
# Submitted via: CDex 1.76
#
DISCID=f0099512
DTITLE=Johnny Cash - Forevergold
DYEAR=2003
DGENRE=Country
TTITLE0=Beishaza
TTITLE1=Blue train
TTITLE2=Cry cry cry
TTITLE3=Down the street to 301
TTITLE4=Get Rhytm
TTITLE5=Give my love to Rose
TTITLE6=Guess things happen that way
TTITLE7=Hey Porter
TTITLE8=I can't help it
TTITLE9=I forgot to remember forgot
TTITLE10=I walk the line
TTITLE11=Luther's boogie
TTITLE12=Mean eye cat
TTITLE13=My treasure
TTITLE14=Oh lonesome me
TTITLE15=Thanks a lot
TTITLE16=The ways of a woman in love
TTITLE17=You win again
EXTD=YEAR: 2003
EXTT0=
EXTT1=
EXTT2=
EXTT3=
EXTT4=
EXTT5=
EXTT6=
EXTT7=
EXTT8=
EXTT9=
EXTT10=
EXTT11=
EXTT12=
EXTT13=
EXTT14=
EXTT15=
EXTT16=
EXTT17=
PLAYORDER=
